<svg width="=20" height="18" viewBox="0 0 12 11" fill="none" xmlns="http://www.w3.org/2000/svg">
<path d="M1.13668 0.993183C0.928215 0.993183 0.728288 1.07072 0.580881 1.20874C0.433473 1.34675 0.35066 1.53394 0.35066 1.72913V3.52631C0.35066 3.7215 0.433473 3.90869 0.580881 4.0467C0.728288 4.18472 0.928215 4.26226 1.13668 4.26226H2.22768C2.22768 4.52057 2.21117 4.77963 2.17894 5.03794C2.13021 5.31172 2.04846 5.55531 1.93528 5.768C1.8213 5.98143 1.6751 6.14849 1.49589 6.27065C1.31746 6.40754 1.0903 6.47598 0.813626 6.47598V7.6167C1.26873 7.6167 1.66646 7.52544 2.00838 7.34293C2.34732 7.16226 2.63873 6.9128 2.86121 6.61287C3.0845 6.2822 3.24908 5.91983 3.34854 5.53986C3.44877 5.12055 3.49782 4.69193 3.49474 4.26226V1.72913C3.49474 1.53394 3.41193 1.34675 3.26452 1.20874C3.11711 1.07072 2.91719 0.993183 2.70872 0.993183H1.13668ZM5.8528 0.993183C5.64434 0.993183 5.44441 1.07072 5.297 1.20874C5.14959 1.34675 5.06678 1.53394 5.06678 1.72913V3.52631C5.06678 3.7215 5.14959 3.90869 5.297 4.0467C5.44441 4.18472 5.64434 4.26226 5.8528 4.26226H6.9438C6.9438 4.52057 6.92729 4.77963 6.89506 5.03794C6.84633 5.31172 6.76459 5.55531 6.6514 5.768C6.53743 5.98143 6.39123 6.14849 6.21201 6.27065C6.03359 6.40754 5.80643 6.47598 5.52975 6.47598V7.6167C5.98485 7.6167 6.38258 7.52544 6.7245 7.34293C7.06344 7.16226 7.35485 6.9128 7.57733 6.61287C7.80062 6.2822 7.9652 5.91983 8.06466 5.53986C8.16489 5.12055 8.21394 4.69193 8.21086 4.26226V1.72913C8.21086 1.53394 8.12805 1.34675 7.98064 1.20874C7.83324 1.07072 7.63331 0.993183 7.42484 0.993183H5.8528Z" fill="#1E1E1E"/>
</svg>
