<svg width="20" height="18" viewBox="0 0 12 11" fill="none" xmlns="http://www.w3.org/2000/svg">
<path d="M7.28974 7.38939C7.49821 7.38939 7.69813 7.31185 7.84554 7.17383C7.99295 7.03582 8.07576 6.84863 8.07576 6.65344V4.85626C8.07576 4.66107 7.99295 4.47388 7.84554 4.33587C7.69813 4.19785 7.49821 4.12031 7.28974 4.12031H6.19875C6.19875 3.862 6.21525 3.60294 6.24748 3.34463C6.29621 3.07085 6.37796 2.82725 6.49115 2.61457C6.60512 2.40114 6.75132 2.23408 6.93053 2.11191C7.10896 1.97503 7.33612 1.90659 7.6128 1.90659V0.765869C7.15769 0.765869 6.75996 0.857126 6.41805 1.03964C6.0791 1.22031 5.78769 1.46977 5.56521 1.7697C5.34192 2.10037 5.17735 2.46274 5.07788 2.84271C4.97765 3.26202 4.9286 3.69064 4.93168 4.12031V6.65344C4.93168 6.84863 5.01449 7.03582 5.1619 7.17383C5.30931 7.31185 5.50924 7.38939 5.7177 7.38939H7.28974ZM2.57362 7.38939C2.78209 7.38939 2.98201 7.31185 3.12942 7.17383C3.27683 7.03582 3.35964 6.84863 3.35964 6.65344V4.85626C3.35964 4.66107 3.27683 4.47388 3.12942 4.33587C2.98201 4.19785 2.78209 4.12031 2.57362 4.12031H1.48262C1.48262 3.862 1.49913 3.60294 1.53136 3.34463C1.58009 3.07085 1.66184 2.82725 1.77502 2.61457C1.889 2.40114 2.0352 2.23408 2.21441 2.11191C2.39284 1.97503 2.62 1.90659 2.89667 1.90659V0.765869C2.44157 0.765869 2.04384 0.857126 1.70192 1.03964C1.36298 1.22031 1.07157 1.46977 0.849092 1.7697C0.625804 2.10037 0.461226 2.46274 0.36176 2.84271C0.261531 3.26202 0.212483 3.69064 0.21556 4.12031V6.65344C0.21556 6.84863 0.298372 7.03582 0.44578 7.17383C0.593187 7.31185 0.793115 7.38939 1.00158 7.38939H2.57362Z" fill="#1E1E1E"/>
</svg>
