<svg width="80" height="70" viewBox="0 0 144 97" fill="none" xmlns="http://www.w3.org/2000/svg">
<path d="M105.679 0.00013598C105.679 1.1444 105.679 16.3179 105.679 17.4636C106.82 17.4636 117.953 17.4636 117.953 17.4636L104.248 68.4647C104.248 68.4647 87.4792 0.950669 87.2412 0.00013598C86.3255 0.00013598 70.4063 0.00013598 69.5036 0.00013598C69.2536 0.928269 51.1093 68.4688 51.1093 68.4688L38.488 17.4636C38.488 17.4636 50.1224 17.4636 51.2683 17.4636C51.2683 16.3179 51.2683 1.1444 51.2683 0.00013598C50.0427 0.00013598 1.22604 0.00013598 0 0.00013598C0 1.1444 0 16.3179 0 17.4636C1.1349 17.4636 11.3599 17.4636 11.3599 17.4636C11.3599 17.4636 30.9636 95.8751 31.2005 96.8267C32.1437 96.8267 57.7896 96.8267 58.7193 96.8267C58.9636 95.897 71.8557 46.8876 71.8557 46.8876C71.8557 46.8876 84.1057 95.884 84.3412 96.8267C85.2839 96.8267 110.93 96.8267 111.859 96.8267C112.107 95.8907 132.734 17.4636 132.734 17.4636C132.734 17.4636 142.867 17.4636 144 17.4636C144 16.3179 144 1.1444 144 0.00013598C142.789 0.00013598 106.89 0.00013598 105.679 0.00013598" fill="black"/>
</svg>
